<?xml version="1.0" ?><!DOCTYPE svg  PUBLIC '-//W3C//DTD SVG 1.1//EN'  'http://www.w3.org/Graphics/SVG/1.1/DTD/svg11.dtd'><svg height="8.4666mm" style="shape-rendering:geometricPrecision; text-rendering:geometricPrecision; image-rendering:optimizeQuality; fill-rule:evenodd; clip-rule:evenodd" version="1.1" viewBox="0 0 847 847" width="8.4666mm" xml:space="preserve" xmlns="http://www.w3.org/2000/svg" xmlns:xlink="http://www.w3.org/1999/xlink"><defs><style type="text/css">
   <![CDATA[
    .fil0 {fill:black;fill-rule:nonzero;fill-opacity:0.501961}
   ]]>
  </style></defs><g id="Layer_x0020_1"><path class="fil0" d="M618 242l104 0c9,0 17,8 17,17l0 20c0,9 -8,17 -17,17l-104 0c-9,0 -17,-8 -17,-17l0 -20c0,-9 8,-17 17,-17zm-429 -54l0 -109c0,-10 4,-19 10,-25 7,-7 16,-11 25,-11l398 0c10,0 19,4 25,11 7,6 11,15 11,25l0 109 112 0c10,0 18,4 25,10 6,6 10,15 10,25l0 363c0,9 -4,18 -10,24 -7,7 -15,11 -25,11l-116 0 0 147c0,10 -4,19 -10,25 -6,6 -15,10 -25,10l-391 0c-10,0 -19,-4 -25,-10 -7,-6 -11,-15 -11,-25l0 -147 -115 0c-10,0 -19,-4 -25,-11 -7,-6 -11,-15 -11,-24l0 -363c0,-10 4,-19 11,-25 6,-6 15,-10 25,-10l112 0zm34 -109l0 109 401 0 0 -109c0,0 0,-1 -1,-1 0,-1 0,-1 -1,-1l-398 0c0,0 0,0 -1,1 0,0 0,1 0,1zm78 534c-9,0 -16,-7 -16,-16 0,-10 7,-17 16,-17l244 0c10,0 17,7 17,17 0,9 -7,16 -17,16l-244 0zm0 98c-9,0 -16,-7 -16,-17 0,-9 7,-17 16,-17l244 0c10,0 17,8 17,17 0,10 -7,17 -17,17l-244 0zm391 -189l-38 0 0 65 116 0c0,0 1,0 1,-1 0,0 1,0 1,0l0 -363c0,-1 -1,-1 -1,-1 0,0 -1,-1 -1,-1l-693 0c-1,0 -1,1 -2,1 0,0 0,0 0,1l0 363c0,0 0,0 0,0 1,1 1,1 2,1l115 0 0 -65 -37 0 0 -34 537 0 0 34zm-72 246l0 -246 -394 0 0 246c0,1 0,1 0,1 1,0 1,0 2,0l391 0c1,0 1,0 1,0 0,0 0,0 0,-1z"/></g></svg>